<svg width="24" height="24" viewBox="0 0 24 24" fill="none" xmlns="http://www.w3.org/2000/svg">
<rect width="24" height="24" rx="6" fill="#0B03FD"/>
<path d="M13.2462 10.6422H17V9.23853H14.2154L12.6769 6.64174C12.4462 6.25184 12.0308 5.9867 11.5538 5.9867C11.4154 5.9867 11.2923 6.01009 11.1692 6.04908L7 7.36697V11.422H8.38462V8.56009L10.0077 8.04541L7 20H8.38462L10.5923 13.6757L12.3846 16.1009V20H13.7692V15.0014L11.8538 11.461L12.4154 9.22294M13.1538 5.80734C13.9231 5.80734 14.5385 5.18349 14.5385 4.40367C14.5385 3.62385 13.9231 3 13.1538 3C12.3846 3 11.7692 3.62385 11.7692 4.40367C11.7692 5.18349 12.3846 5.80734 13.1538 5.80734Z" fill="white"/>
</svg>
