<svg width="25" height="24" viewBox="0 0 25 24" fill="none" xmlns="http://www.w3.org/2000/svg">
<g clip-path="url(#clip0_242_1208)">
<rect x="0.5" width="24" height="24" rx="6" fill="white"/>
<path fill-rule="evenodd" clip-rule="evenodd" d="M0.5 6C0.5 4.4087 1.13214 2.88258 2.25736 1.75736C3.38258 0.632141 4.9087 0 6.5 0L18.5 0C20.0913 0 21.6174 0.632141 22.7426 1.75736C23.8679 2.88258 24.5 4.4087 24.5 6V18C24.5 19.5913 23.8679 21.1174 22.7426 22.2426C21.6174 23.3679 20.0913 24 18.5 24H6.5C4.9087 24 3.38258 23.3679 2.25736 22.2426C1.13214 21.1174 0.5 19.5913 0.5 18L0.5 6ZM9.43143 5.34343C9.29058 5.3432 9.15107 5.37075 9.02088 5.42449C8.89069 5.47824 8.77238 5.55712 8.67271 5.65664C8.57303 5.75615 8.49396 5.87434 8.44001 6.00444C8.38606 6.13455 8.35829 6.27401 8.35829 6.41486V18.4629C8.35829 18.747 8.47117 19.0195 8.6721 19.2205C8.87303 19.4214 9.14555 19.5343 9.42971 19.5343C9.71387 19.5343 9.9864 19.4214 10.1873 19.2205C10.3883 19.0195 10.5011 18.747 10.5011 18.4629V14.5131H14.8897C15.3681 14.5131 15.8418 14.4189 16.2838 14.2358C16.7257 14.0528 17.1273 13.7844 17.4656 13.4462C17.8039 13.1079 18.0722 12.7063 18.2553 12.2643C18.4383 11.8224 18.5326 11.3487 18.5326 10.8703V8.98629C18.5326 8.5079 18.4383 8.0342 18.2553 7.59222C18.0722 7.15025 17.8039 6.74867 17.4656 6.4104C17.1273 6.07213 16.7257 5.8038 16.2838 5.62072C15.8418 5.43765 15.3681 5.34343 14.8897 5.34343H9.43143ZM14.8897 12.372H10.5011V7.48629H14.8897C15.7177 7.48629 16.3897 8.15829 16.3897 8.98629V10.872C16.3893 11.2695 16.231 11.6506 15.9498 11.9316C15.6685 12.2125 15.2872 12.372 14.8897 12.372Z" fill="#0B03FD"/>
</g>
<defs>
<clipPath id="clip0_242_1208">
<rect x="0.5" width="24" height="24" rx="6" fill="white"/>
</clipPath>
</defs>
</svg>
