<svg width="24" height="24" viewBox="0 0 24 24" fill="none" xmlns="http://www.w3.org/2000/svg">
<path fill-rule="evenodd" clip-rule="evenodd" d="M4.0632 1.25H7.8142C7.96675 1.25 8.11568 1.29652 8.2411 1.38336C8.36653 1.47019 8.4625 1.59321 8.5162 1.736L9.9722 5.606C10.0202 5.73398 10.0323 5.87264 10.0072 6.007L9.2772 9.919C10.1742 12.027 11.6552 13.444 14.1102 14.715L17.9752 13.965C18.1125 13.9385 18.2546 13.951 18.3852 14.001L22.2672 15.481C22.4091 15.5351 22.5313 15.6309 22.6175 15.7559C22.7038 15.8809 22.75 16.0291 22.7502 16.181V19.765C22.7502 21.391 21.3182 22.71 19.6422 22.345C16.5892 21.681 10.9322 19.992 6.9702 16.03C3.1742 12.235 1.9022 6.993 1.4752 4.16C1.2302 2.542 2.5272 1.25 4.0632 1.25Z" fill="#0B03FD"/>
</svg>
